<svg width="32" height="32" viewBox="0 0 32 32" fill="none" xmlns="http://www.w3.org/2000/svg">
<rect width="32" height="32" rx="3" fill="url(#paint0_linear_43_7)"/>
<g clip-path="url(#clip0_43_7)">
<path fill-rule="evenodd" clip-rule="evenodd" d="M10 10.8571C11.8935 10.8571 13.4286 9.32212 13.4286 7.42857C13.4286 5.53502 11.8935 4 10 4C8.10645 4 6.57143 5.53502 6.57143 7.42857C6.57143 9.32212 8.10645 10.8571 10 10.8571ZM13.5056 21.1429V21.0923C13.5056 19.3948 14.4429 17.9162 15.8282 17.1458C15.5694 16.0881 15.0253 15.1115 14.2426 14.3288C13.1174 13.2036 11.5913 12.5714 10 12.5714C8.4087 12.5714 6.88257 13.2036 5.75737 14.3288C4.63214 15.454 4 16.9801 4 18.5714V20.2857C4 20.7591 4.38376 21.1429 4.85714 21.1429H6.57143L7.33471 27.2491C7.38834 27.6781 7.75297 28 8.18524 28H11.8148C12.247 28 12.6117 27.6781 12.6653 27.2491L13.4286 21.1429H13.5056ZM21.0177 17.1782C20.781 17.1782 20.5891 17.37 20.5891 17.6067V18.7225H23.0107V17.6067C23.0107 17.37 22.8187 17.1782 22.5822 17.1782H21.0177ZM18.0177 17.6067V18.7225C16.7091 18.7228 15.6484 19.7837 15.6484 21.0923V25.6302C15.6484 26.9389 16.7094 27.9998 18.0182 27.9998H25.5813C26.89 27.9998 27.951 26.9389 27.951 25.6302V21.0923C27.951 19.7838 26.8905 18.723 25.5822 18.7225V17.6067C25.5822 15.9499 24.239 14.6067 22.5822 14.6067H21.0177C19.3609 14.6067 18.0177 15.9499 18.0177 17.6067Z" fill="#111111"/>
</g>
<defs>
<linearGradient id="paint0_linear_43_7" x1="16" y1="0" x2="16" y2="32" gradientUnits="userSpaceOnUse">
<stop stop-color="#EEEEEE"/>
<stop offset="1" stop-color="#AAAAAA"/>
</linearGradient>
<clipPath id="clip0_43_7">
<rect width="24" height="24" fill="white" transform="translate(4 4)"/>
</clipPath>
</defs>
</svg>
