<svg width="32" height="32" viewBox="0 0 32 32" fill="none" xmlns="http://www.w3.org/2000/svg">
<rect width="32" height="32" rx="3" fill="url(#paint0_linear_43_8)"/>
<g clip-path="url(#clip0_43_8)">
<path fill-rule="evenodd" clip-rule="evenodd" d="M16.0001 3.99878C20.4941 3.99878 24.2391 7.74374 24.2391 12.2378C24.2391 13.7045 23.7349 15.151 23.0303 16.4616C22.323 17.7773 21.3867 19.0057 20.4564 20.0516C19.5244 21.0995 18.5827 21.9817 17.849 22.605C17.4825 22.9163 17.1617 23.1683 16.9144 23.3468C16.7923 23.4349 16.6779 23.5124 16.5791 23.5717C16.531 23.6005 16.4724 23.6337 16.4101 23.6625C16.3791 23.6768 16.3345 23.696 16.2813 23.7129C16.2394 23.7263 16.1348 23.7577 16.0001 23.7577C15.8642 23.7577 15.7587 23.7258 15.7167 23.7123C15.6632 23.6949 15.6184 23.6756 15.5874 23.6612C15.525 23.632 15.4663 23.5986 15.4183 23.5695C15.3195 23.5096 15.2052 23.4315 15.0831 23.3427C14.836 23.163 14.5153 22.9093 14.149 22.5959C13.4157 21.9688 12.4744 21.082 11.5428 20.0313C10.6131 18.9827 9.67726 17.7532 8.97015 16.4406C8.26607 15.1336 7.76106 13.693 7.76106 12.2378C7.76106 7.74374 11.506 3.99878 16.0001 3.99878ZM16.0001 14.6984C14.6411 14.6984 13.5395 13.5968 13.5395 12.2378C13.5395 10.8788 14.6411 9.77718 16.0001 9.77718C17.3591 9.77718 18.4607 10.8788 18.4607 12.2378C18.4607 13.5968 17.3591 14.6984 16.0001 14.6984ZM21.313 21.411C21.6293 21.0554 21.9457 20.6829 22.2563 20.2959H24.5588C24.9017 20.2959 25.2116 20.5003 25.3467 20.8154L27.9142 26.8065C28.0277 27.0714 28.0006 27.3755 27.842 27.616C27.6834 27.8565 27.4145 28.0012 27.1265 28.0012H4.87375C4.58562 28.0012 4.31678 27.8565 4.15817 27.616C3.99956 27.3755 3.97241 27.0714 4.08591 26.8065L6.65351 20.8154C6.78858 20.5003 7.09847 20.2959 7.44137 20.2959H9.76479C10.0683 20.6739 10.3773 21.0382 10.6861 21.3863C11.8201 22.6655 12.9662 23.7453 13.8584 24.5082C14.3042 24.8895 14.6927 25.1968 14.9903 25.4132C15.1376 25.5203 15.2728 25.6125 15.3873 25.6818C15.4432 25.7157 15.5083 25.7528 15.5759 25.7843C15.6096 25.8001 15.6566 25.8203 15.712 25.8381C15.7559 25.8524 15.8629 25.8846 16 25.8846C16.1359 25.8846 16.2421 25.8529 16.2858 25.839C16.3409 25.8213 16.3878 25.8013 16.4214 25.7857C16.4889 25.7545 16.554 25.7178 16.6099 25.6842C16.7244 25.6155 16.8597 25.5239 17.007 25.4176C17.3048 25.2028 17.6935 24.8977 18.1394 24.5188C19.032 23.7606 20.1785 22.6864 21.313 21.411Z" fill="#111111"/>
</g>
<defs>
<linearGradient id="paint0_linear_43_8" x1="16" y1="0" x2="16" y2="32" gradientUnits="userSpaceOnUse">
<stop stop-color="#EEEEEE"/>
<stop offset="1" stop-color="#AAAAAA"/>
</linearGradient>
<clipPath id="clip0_43_8">
<rect width="24" height="24" fill="white" transform="translate(4 4)"/>
</clipPath>
</defs>
</svg>
