<svg width="217" height="80" viewBox="0 0 217 80" fill="none" xmlns="http://www.w3.org/2000/svg">
<path d="M9.24799 24.5481C7.47661 24.5481 5.93528 24.2739 4.624 23.7253C3.33572 23.1767 2.335 22.3996 1.62185 21.3939C0.931701 20.3882 0.586626 19.2111 0.586626 17.8625V16.8683C0.586626 16.6397 0.701651 16.5254 0.931701 16.5254H3.45074C3.68079 16.5254 3.79582 16.6397 3.79582 16.8683V17.6911C3.79582 18.8568 4.30193 19.8168 5.31415 20.5711C6.32636 21.3253 7.71816 21.7025 9.48954 21.7025C11.0769 21.7025 12.2731 21.371 13.0783 20.7082C13.8835 20.0454 14.2861 19.1768 14.2861 18.1025C14.2861 17.394 14.079 16.7883 13.6649 16.2854C13.2509 15.7826 12.6412 15.3254 11.8361 14.914C11.0539 14.4797 9.90363 13.9655 8.38531 13.3712C6.70595 12.7312 5.37166 12.1484 4.38244 11.6226C3.41624 11.0969 2.61106 10.4112 1.96692 9.56554C1.32279 8.69699 1.00072 7.61129 1.00072 6.30846C1.00072 4.34278 1.70237 2.79995 3.10567 1.67997C4.53198 0.55999 6.45289 0 8.86841 0C10.5708 0 12.0661 0.285709 13.3544 0.857127C14.6427 1.42854 15.6319 2.22853 16.322 3.25708C17.0352 4.28564 17.3918 5.47419 17.3918 6.82274V7.50844C17.3918 7.737 17.2767 7.85129 17.0467 7.85129H14.4586C14.2286 7.85129 14.1135 7.737 14.1135 7.50844V6.99416C14.1135 5.80561 13.6304 4.82277 12.6642 4.04564C11.721 3.24566 10.4097 2.84566 8.73038 2.84566C7.30407 2.84566 6.19984 3.1428 5.41767 3.73708C4.6355 4.30849 4.24441 5.14277 4.24441 6.23989C4.24441 6.99416 4.43996 7.61129 4.83104 8.09128C5.22213 8.57127 5.79725 9.00555 6.55641 9.39412C7.33858 9.75983 8.52334 10.2398 10.1107 10.8341C11.744 11.4741 13.0668 12.0684 14.079 12.6169C15.0913 13.1426 15.9309 13.8512 16.5981 14.7426C17.2652 15.6111 17.5988 16.6968 17.5988 17.9997C17.5988 20.0111 16.8511 21.611 15.3558 22.7996C13.8835 23.9653 11.8476 24.5481 9.24799 24.5481Z" fill="url(#paint0_linear_19_177)"/>
<path d="M43.6481 2.77709C43.6481 3.00566 43.5331 3.11994 43.3031 3.11994H31.0529C30.9609 3.11994 30.9149 3.16566 30.9149 3.25708V10.6284C30.9149 10.7198 30.9609 10.7655 31.0529 10.7655H39.4727C39.7028 10.7655 39.8178 10.8798 39.8178 11.1084V13.2683C39.8178 13.4969 39.7028 13.6112 39.4727 13.6112H31.0529C30.9609 13.6112 30.9149 13.6569 30.9149 13.7483V21.291C30.9149 21.3825 30.9609 21.4282 31.0529 21.4282H43.3031C43.5331 21.4282 43.6481 21.5425 43.6481 21.771V23.931C43.6481 24.1596 43.5331 24.2739 43.3031 24.2739H27.9472C27.7172 24.2739 27.6022 24.1596 27.6022 23.931V0.61713C27.6022 0.388563 27.7172 0.274279 27.9472 0.274279H43.3031C43.5331 0.274279 43.6481 0.388563 43.6481 0.61713V2.77709Z" fill="url(#paint1_linear_19_177)"/>
<path d="M66.6182 11.7598C66.5032 11.8284 66.5032 11.8969 66.6182 11.9655C69.0567 12.9941 70.276 14.9026 70.276 17.6911C70.276 19.7939 69.5744 21.4168 68.1711 22.5596C66.7678 23.7024 64.9389 24.2739 62.6844 24.2739H54.092C53.862 24.2739 53.7469 24.1596 53.7469 23.931V0.61713C53.7469 0.388563 53.862 0.274279 54.092 0.274279H62.4083C64.8008 0.274279 66.6527 0.822841 67.964 1.91997C69.2983 2.99423 69.9654 4.57135 69.9654 6.65131C69.9654 9.11984 68.8497 10.8227 66.6182 11.7598ZM57.1977 3.11994C57.1057 3.11994 57.0597 3.16566 57.0597 3.25708V10.4912C57.0597 10.5827 57.1057 10.6284 57.1977 10.6284H62.4083C63.7426 10.6284 64.7893 10.297 65.5485 9.63411C66.3307 8.97127 66.7217 8.06843 66.7217 6.92559C66.7217 5.7599 66.3307 4.8342 65.5485 4.1485C64.7893 3.46279 63.7426 3.11994 62.4083 3.11994H57.1977ZM62.6844 21.3939C63.9957 21.3939 65.0309 21.0396 65.79 20.3311C66.5722 19.5996 66.9633 18.6168 66.9633 17.3825C66.9633 16.1483 66.5722 15.1769 65.79 14.4683C65.0079 13.7369 63.9381 13.3712 62.5809 13.3712H57.1977C57.1057 13.3712 57.0597 13.4169 57.0597 13.5083V21.2568C57.0597 21.3482 57.1057 21.3939 57.1977 21.3939H62.6844Z" fill="url(#paint2_linear_19_177)"/>
<path d="M94.4563 24.2739C94.2492 24.2739 94.1112 24.1824 94.0422 23.9996L92.7999 19.9882C92.7769 19.9196 92.7309 19.8854 92.6619 19.8854H82.9653C82.8963 19.8854 82.8503 19.9196 82.8273 19.9882L81.585 23.9996C81.516 24.1824 81.378 24.2739 81.1709 24.2739H78.3758C78.1228 24.2739 78.0307 24.1481 78.0998 23.8967L85.6569 0.548561C85.7259 0.365706 85.8639 0.274279 86.071 0.274279H89.5217C89.7288 0.274279 89.8668 0.365706 89.9358 0.548561L97.562 23.8967L97.5965 24.0339C97.5965 24.1939 97.4929 24.2739 97.2859 24.2739H94.4563ZM83.69 17.1083C83.667 17.154 83.667 17.1997 83.69 17.2454C83.736 17.2683 83.782 17.2797 83.828 17.2797H91.7647C91.8107 17.2797 91.8452 17.2683 91.8682 17.2454C91.9142 17.1997 91.9257 17.154 91.9027 17.1083L87.8999 4.38849C87.8769 4.34278 87.8424 4.31992 87.7963 4.31992C87.7503 4.31992 87.7158 4.34278 87.6928 4.38849L83.69 17.1083Z" fill="url(#paint3_linear_19_177)"/>
<path d="M113.153 24.5481C111.382 24.5481 109.84 24.2739 108.529 23.7253C107.241 23.1767 106.24 22.3996 105.527 21.3939C104.837 20.3882 104.492 19.2111 104.492 17.8625V16.8683C104.492 16.6397 104.607 16.5254 104.837 16.5254H107.356C107.586 16.5254 107.701 16.6397 107.701 16.8683V17.6911C107.701 18.8568 108.207 19.8168 109.219 20.5711C110.231 21.3253 111.623 21.7025 113.395 21.7025C114.982 21.7025 116.178 21.371 116.983 20.7082C117.789 20.0454 118.191 19.1768 118.191 18.1025C118.191 17.394 117.984 16.7883 117.57 16.2854C117.156 15.7826 116.546 15.3254 115.741 14.914C114.959 14.4797 113.809 13.9655 112.29 13.3712C110.611 12.7312 109.277 12.1484 108.288 11.6226C107.321 11.0969 106.516 10.4112 105.872 9.56554C105.228 8.69699 104.906 7.61129 104.906 6.30846C104.906 4.34278 105.607 2.79995 107.011 1.67997C108.437 0.55999 110.358 0 112.774 0C114.476 0 115.971 0.285709 117.259 0.857127C118.548 1.42854 119.537 2.22853 120.227 3.25708C120.94 4.28564 121.297 5.47419 121.297 6.82274V7.50844C121.297 7.737 121.182 7.85129 120.952 7.85129H118.364C118.134 7.85129 118.019 7.737 118.019 7.50844V6.99416C118.019 5.80561 117.536 4.82277 116.569 4.04564C115.626 3.24566 114.315 2.84566 112.635 2.84566C111.209 2.84566 110.105 3.1428 109.323 3.73708C108.541 4.30849 108.15 5.14277 108.15 6.23989C108.15 6.99416 108.345 7.61129 108.736 8.09128C109.127 8.57127 109.702 9.00555 110.462 9.39412C111.244 9.75983 112.428 10.2398 114.016 10.8341C115.649 11.4741 116.972 12.0684 117.984 12.6169C118.996 13.1426 119.836 13.8512 120.503 14.7426C121.17 15.6111 121.504 16.6968 121.504 17.9997C121.504 20.0111 120.756 21.611 119.261 22.7996C117.789 23.9653 115.753 24.5481 113.153 24.5481Z" fill="url(#paint4_linear_19_177)"/>
<path d="M146.29 0.274279C146.52 0.274279 146.635 0.388563 146.635 0.61713V2.81138C146.635 3.03994 146.52 3.15423 146.29 3.15423H139.665C139.573 3.15423 139.527 3.19994 139.527 3.29137V23.931C139.527 24.1596 139.412 24.2739 139.182 24.2739H136.559C136.329 24.2739 136.214 24.1596 136.214 23.931V3.29137C136.214 3.19994 136.168 3.15423 136.076 3.15423H129.761C129.531 3.15423 129.416 3.03994 129.416 2.81138V0.61713C129.416 0.388563 129.531 0.274279 129.761 0.274279H146.29Z" fill="url(#paint5_linear_19_177)"/>
<path d="M156.615 24.2739C156.385 24.2739 156.27 24.1596 156.27 23.931V0.61713C156.27 0.388563 156.385 0.274279 156.615 0.274279H159.238C159.468 0.274279 159.583 0.388563 159.583 0.61713V23.931C159.583 24.1596 159.468 24.2739 159.238 24.2739H156.615Z" fill="url(#paint6_linear_19_177)"/>
<path d="M185.421 24.2739C185.214 24.2739 185.076 24.1824 185.007 23.9996L183.765 19.9882C183.742 19.9196 183.696 19.8854 183.627 19.8854H173.93C173.861 19.8854 173.815 19.9196 173.792 19.9882L172.55 23.9996C172.481 24.1824 172.343 24.2739 172.136 24.2739H169.341C169.088 24.2739 168.996 24.1481 169.065 23.8967L176.622 0.548561C176.691 0.365706 176.829 0.274279 177.036 0.274279H180.487C180.694 0.274279 180.832 0.365706 180.901 0.548561L188.527 23.8967L188.561 24.0339C188.561 24.1939 188.458 24.2739 188.251 24.2739H185.421ZM174.655 17.1083C174.632 17.154 174.632 17.1997 174.655 17.2454C174.701 17.2683 174.747 17.2797 174.793 17.2797H182.73C182.776 17.2797 182.81 17.2683 182.833 17.2454C182.879 17.1997 182.891 17.154 182.868 17.1083L178.865 4.38849C178.842 4.34278 178.807 4.31992 178.761 4.31992C178.715 4.31992 178.681 4.34278 178.658 4.38849L174.655 17.1083Z" fill="url(#paint7_linear_19_177)"/>
<path d="M212.229 0.61713C212.229 0.388563 212.344 0.274279 212.574 0.274279H215.197C215.427 0.274279 215.542 0.388563 215.542 0.61713V23.931C215.542 24.1596 215.427 24.2739 215.197 24.2739H212.678C212.517 24.2739 212.379 24.1939 212.264 24.0339L201.463 6.51417C201.44 6.4456 201.406 6.42274 201.36 6.4456C201.313 6.4456 201.29 6.47988 201.29 6.54845L201.325 23.931C201.325 24.1596 201.21 24.2739 200.98 24.2739H198.357C198.127 24.2739 198.012 24.1596 198.012 23.931V0.61713C198.012 0.388563 198.127 0.274279 198.357 0.274279H200.911C201.072 0.274279 201.21 0.354278 201.325 0.514276L212.091 18.034C212.114 18.1025 212.149 18.1368 212.195 18.1368C212.241 18.114 212.264 18.0682 212.264 17.9997L212.229 0.61713Z" fill="url(#paint8_linear_19_177)"/>
<path d="M17.9439 80C14.3551 80 11.2034 79.3372 8.48883 78.0115C5.77424 76.6858 3.68079 74.8115 2.20848 72.3887C0.736159 69.9202 0 67.1088 0 63.9546V59.9089C0 59.6804 0.0690149 59.4975 0.207045 59.3604C0.391084 59.1775 0.598129 59.0861 0.828178 59.0861H10.6283C10.8583 59.0861 11.0424 59.1775 11.1804 59.3604C11.3644 59.4975 11.4565 59.6804 11.4565 59.9089V63.886C11.4565 65.806 12.0316 67.3602 13.1818 68.5488C14.3321 69.6916 15.9194 70.263 17.9439 70.263C19.8763 70.263 21.4636 69.6916 22.7059 68.5488C23.9482 67.3602 24.5693 65.806 24.5693 63.886V32.2751C24.5693 32.0466 24.6383 31.8637 24.7763 31.7266C24.9604 31.5437 25.1674 31.4523 25.3975 31.4523H35.1286C35.3586 31.4523 35.5427 31.5437 35.6807 31.7266C35.8647 31.8637 35.9567 32.0466 35.9567 32.2751V63.9546C35.9567 67.1088 35.1976 69.8973 33.6793 72.3201C32.1609 74.743 30.0215 76.6401 27.2609 78.0115C24.5463 79.3372 21.4406 80 17.9439 80Z" fill="url(#paint9_linear_19_177)"/>
<path d="M70.5693 79.4514C70.0632 79.4514 69.7411 79.2229 69.6031 78.7657L67.8087 72.663C67.7167 72.4801 67.6017 72.3887 67.4637 72.3887H51.7283C51.5902 72.3887 51.4752 72.4801 51.3832 72.663L49.5888 78.7657C49.4508 79.2229 49.1287 79.4514 48.6226 79.4514H38.0633C37.7873 79.4514 37.5802 79.3829 37.4422 79.2457C37.3042 79.0629 37.2812 78.8115 37.3732 78.4915L52.1424 32.138C52.2804 31.6809 52.5794 31.4523 53.0395 31.4523H66.0834C66.5435 31.4523 66.8425 31.6809 66.9806 32.138L81.8187 78.4915C81.8648 78.5829 81.8878 78.6972 81.8878 78.8343C81.8878 79.2457 81.6347 79.4514 81.1286 79.4514H70.5693ZM54.1438 63.2003C54.0978 63.4746 54.1898 63.6117 54.4198 63.6117H64.7031C64.9791 63.6117 65.0711 63.4746 64.9791 63.2003L59.734 45.5778C59.688 45.3949 59.619 45.3263 59.5269 45.372C59.4349 45.372 59.3659 45.4406 59.3199 45.5778L54.1438 63.2003Z" fill="url(#paint10_linear_19_177)"/>
<path d="M112.277 32.2751C112.277 32.0466 112.347 31.8637 112.485 31.7266C112.669 31.5437 112.876 31.4523 113.106 31.4523H122.906C123.136 31.4523 123.32 31.5437 123.458 31.7266C123.642 31.8637 123.734 32.0466 123.734 32.2751V78.6286C123.734 78.8572 123.642 79.0629 123.458 79.2457C123.32 79.3829 123.136 79.4514 122.906 79.4514H113.52C113.06 79.4514 112.738 79.2686 112.554 78.9029L96.6801 52.7091C96.5881 52.5719 96.4961 52.5262 96.4041 52.5719C96.312 52.5719 96.266 52.6633 96.266 52.8462L96.3351 78.6286C96.3351 78.8572 96.243 79.0629 96.059 79.2457C95.921 79.3829 95.7369 79.4514 95.5069 79.4514H85.7068C85.4767 79.4514 85.2697 79.3829 85.0856 79.2457C84.9476 79.0629 84.8786 78.8572 84.8786 78.6286V32.2751C84.8786 32.0466 84.9476 31.8637 85.0856 31.7266C85.2697 31.5437 85.4767 31.4523 85.7068 31.4523H95.1618C95.6219 31.4523 95.944 31.6351 96.128 32.0009L111.932 58.1261C112.024 58.2632 112.116 58.3318 112.208 58.3318C112.3 58.2861 112.347 58.1718 112.347 57.989L112.277 32.2751Z" fill="url(#paint11_linear_19_177)"/>
<path d="M129.332 79.4514C129.102 79.4514 128.895 79.3829 128.711 79.2457C128.573 79.0629 128.504 78.8572 128.504 78.6286V32.2751C128.504 32.0466 128.573 31.8637 128.711 31.7266C128.895 31.5437 129.102 31.4523 129.332 31.4523H139.132C139.362 31.4523 139.546 31.5437 139.684 31.7266C139.868 31.8637 139.96 32.0466 139.96 32.2751V78.6286C139.96 78.8572 139.868 79.0629 139.684 79.2457C139.546 79.3829 139.362 79.4514 139.132 79.4514H129.332Z" fill="url(#paint12_linear_19_177)"/>
<path d="M162.228 80C158.409 80 155.073 79.4057 152.22 78.2172C149.414 76.9829 147.228 75.2458 145.664 73.0058C144.146 70.7202 143.386 68.0916 143.386 65.1203V63.8174C143.386 63.5889 143.455 63.406 143.594 63.2689C143.778 63.086 143.985 62.9946 144.215 62.9946H153.808C154.038 62.9946 154.222 63.086 154.36 63.2689C154.544 63.406 154.636 63.5889 154.636 63.8174V64.6403C154.636 66.1488 155.395 67.4745 156.913 68.6173C158.432 69.7145 160.479 70.263 163.056 70.263C165.08 70.263 166.575 69.8288 167.542 68.9602C168.508 68.0916 168.991 67.0859 168.991 65.9431C168.991 65.0288 168.692 64.2974 168.094 63.7489C167.542 63.1546 166.783 62.6746 165.816 62.3089C164.85 61.8975 163.355 61.3489 161.33 60.6632C161.054 60.5261 160.778 60.4346 160.502 60.3889C160.226 60.2975 159.973 60.2061 159.743 60.1146C156.752 59.1547 154.153 58.1261 151.944 57.029C149.736 55.8861 147.849 54.3319 146.285 52.3662C144.721 50.3548 143.939 47.8863 143.939 44.9606C143.939 42.1264 144.675 39.6579 146.147 37.555C147.665 35.4065 149.759 33.7608 152.427 32.618C155.096 31.4752 158.11 30.9037 161.468 30.9037C165.011 30.9037 168.186 31.5437 170.992 32.8237C173.845 34.1037 176.077 35.9094 177.687 38.2407C179.297 40.5721 180.102 43.2464 180.102 46.2635V47.2234C180.102 47.452 180.01 47.6577 179.826 47.8406C179.688 47.9777 179.504 48.0463 179.274 48.0463H169.681C169.451 48.0463 169.244 47.9777 169.06 47.8406C168.922 47.6577 168.853 47.452 168.853 47.2234V46.7435C168.853 45.1435 168.14 43.7264 166.714 42.4921C165.287 41.2578 163.378 40.6407 160.985 40.6407C159.191 40.6407 157.788 41.0064 156.775 41.7378C155.763 42.4692 155.257 43.4978 155.257 44.8235C155.257 45.8292 155.579 46.6749 156.223 47.3606C156.867 48.0006 157.857 48.6177 159.191 49.212C160.571 49.7605 162.665 50.492 165.471 51.4062C168.692 52.5033 171.199 53.4633 172.994 54.2862C174.788 55.109 176.468 56.4576 178.032 58.3318C179.642 60.1604 180.447 62.5832 180.447 65.6003C180.447 68.5716 179.688 71.1316 178.17 73.2801C176.652 75.4286 174.512 77.0972 171.752 78.2858C169.037 79.4286 165.862 80 162.228 80Z" fill="url(#paint13_linear_19_177)"/>
<path d="M183.321 79.4514C183.091 79.4514 182.884 79.3829 182.7 79.2457C182.562 79.0629 182.493 78.8572 182.493 78.6286V69.7145C182.493 69.3488 182.608 69.0059 182.838 68.6859L203.956 41.6007C204.048 41.5093 204.071 41.4178 204.025 41.3264C203.979 41.235 203.887 41.1893 203.749 41.1893H183.321C183.091 41.1893 182.884 41.1207 182.7 40.9836C182.562 40.8007 182.493 40.595 182.493 40.3664V32.2751C182.493 32.0466 182.562 31.8637 182.7 31.7266C182.884 31.5437 183.091 31.4523 183.321 31.4523H216.172C216.402 31.4523 216.586 31.5437 216.724 31.7266C216.908 31.8637 217 32.0466 217 32.2751V41.1893C217 41.555 216.885 41.8978 216.655 42.2178L195.398 69.303C195.306 69.3945 195.283 69.4859 195.329 69.5773C195.375 69.6688 195.467 69.7145 195.605 69.7145H216.172C216.402 69.7145 216.586 69.8059 216.724 69.9887C216.908 70.1259 217 70.3087 217 70.5373V78.6286C217 78.8572 216.908 79.0629 216.724 79.2457C216.586 79.3829 216.402 79.4514 216.172 79.4514H183.321Z" fill="url(#paint14_linear_19_177)"/>
<defs>
<linearGradient id="paint0_linear_19_177" x1="108.5" y1="0" x2="108.5" y2="80" gradientUnits="userSpaceOnUse">
<stop stop-color="white"/>
<stop offset="1" stop-color="#999999"/>
</linearGradient>
<linearGradient id="paint1_linear_19_177" x1="108.5" y1="0" x2="108.5" y2="80" gradientUnits="userSpaceOnUse">
<stop stop-color="white"/>
<stop offset="1" stop-color="#999999"/>
</linearGradient>
<linearGradient id="paint2_linear_19_177" x1="108.5" y1="0" x2="108.5" y2="80" gradientUnits="userSpaceOnUse">
<stop stop-color="white"/>
<stop offset="1" stop-color="#999999"/>
</linearGradient>
<linearGradient id="paint3_linear_19_177" x1="108.5" y1="0" x2="108.5" y2="80" gradientUnits="userSpaceOnUse">
<stop stop-color="white"/>
<stop offset="1" stop-color="#999999"/>
</linearGradient>
<linearGradient id="paint4_linear_19_177" x1="108.5" y1="0" x2="108.5" y2="80" gradientUnits="userSpaceOnUse">
<stop stop-color="white"/>
<stop offset="1" stop-color="#999999"/>
</linearGradient>
<linearGradient id="paint5_linear_19_177" x1="108.5" y1="0" x2="108.5" y2="80" gradientUnits="userSpaceOnUse">
<stop stop-color="white"/>
<stop offset="1" stop-color="#999999"/>
</linearGradient>
<linearGradient id="paint6_linear_19_177" x1="108.5" y1="0" x2="108.5" y2="80" gradientUnits="userSpaceOnUse">
<stop stop-color="white"/>
<stop offset="1" stop-color="#999999"/>
</linearGradient>
<linearGradient id="paint7_linear_19_177" x1="108.5" y1="0" x2="108.5" y2="80" gradientUnits="userSpaceOnUse">
<stop stop-color="white"/>
<stop offset="1" stop-color="#999999"/>
</linearGradient>
<linearGradient id="paint8_linear_19_177" x1="108.5" y1="0" x2="108.5" y2="80" gradientUnits="userSpaceOnUse">
<stop stop-color="white"/>
<stop offset="1" stop-color="#999999"/>
</linearGradient>
<linearGradient id="paint9_linear_19_177" x1="109.227" y1="10.8812" x2="109.227" y2="93.3798" gradientUnits="userSpaceOnUse">
<stop stop-color="white"/>
<stop offset="1" stop-color="#999999"/>
</linearGradient>
<linearGradient id="paint10_linear_19_177" x1="109.227" y1="10.8812" x2="109.227" y2="93.3798" gradientUnits="userSpaceOnUse">
<stop stop-color="white"/>
<stop offset="1" stop-color="#999999"/>
</linearGradient>
<linearGradient id="paint11_linear_19_177" x1="109.227" y1="10.8812" x2="109.227" y2="93.3798" gradientUnits="userSpaceOnUse">
<stop stop-color="white"/>
<stop offset="1" stop-color="#999999"/>
</linearGradient>
<linearGradient id="paint12_linear_19_177" x1="109.227" y1="10.8812" x2="109.227" y2="93.3798" gradientUnits="userSpaceOnUse">
<stop stop-color="white"/>
<stop offset="1" stop-color="#999999"/>
</linearGradient>
<linearGradient id="paint13_linear_19_177" x1="109.227" y1="10.8812" x2="109.227" y2="93.3798" gradientUnits="userSpaceOnUse">
<stop stop-color="white"/>
<stop offset="1" stop-color="#999999"/>
</linearGradient>
<linearGradient id="paint14_linear_19_177" x1="109.227" y1="10.8812" x2="109.227" y2="93.3798" gradientUnits="userSpaceOnUse">
<stop stop-color="white"/>
<stop offset="1" stop-color="#999999"/>
</linearGradient>
</defs>
</svg>
